<svg id="visual" viewBox="0 0 675 900" width="675" height="900"
     xmlns="http://www.w3.org/2000/svg" version="1.1">
    <path d="M0 740L14 746.8C28 753.7 56 767.3 84.2 771.5C112.3 775.7 140.7 770.3 168.8 761.2C197 752 225 739 253.2 746.3C281.3 753.7 309.7 781.3 337.8 792.7C366 804 394 799 422 785.5C450 772 478 750 506.2 737C534.3 724 562.7 720 590.8 723.2C619 726.3 647 736.7 661 741.8L675 747L675 901L661 901C647 901 619 901 590.8 901C562.7 901 534.3 901 506.2 901C478 901 450 901 422 901C394 901 366 901 337.8 901C309.7 901 281.3 901 253.2 901C225 901 197 901 168.8 901C140.7 901 112.3 901 84.2 901C56 901 28 901 14 901L0 901Z"
          fill="#0066FF" stroke-linecap="round" stroke-linejoin="miter"></path>
</svg>